<svg width="20" height="23" viewBox="0 0 20 23" fill="none" xmlns="http://www.w3.org/2000/svg">
<path d="M8.33842 0C6.80971 0 5.55895 1.25076 5.55895 2.77948H2.77947C1.25076 2.77948 0 4.03024 0 5.55895H19.4563C19.4563 4.03024 18.2056 2.77948 16.6768 2.77948H13.8974C13.8974 1.25076 12.6466 0 11.1179 0H8.33842ZM2.77947 8.33843V21.7077C2.77947 22.0134 3.00183 22.2358 3.30758 22.2358H16.1765C16.4823 22.2358 16.7046 22.0134 16.7046 21.7077V8.33843H13.9252V18.0666C13.9252 18.8448 13.3137 19.4563 12.5354 19.4563C11.7572 19.4563 11.1457 18.8448 11.1457 18.0666V8.33843H8.36622V18.0666C8.36622 18.8448 7.75473 19.4563 6.97648 19.4563C6.19823 19.4563 5.58674 18.8448 5.58674 18.0666V8.33843H2.80727H2.77947Z" fill="#FBF6F0"/>
</svg>
