<svg width="20" height="21" viewBox="0 0 20 21" fill="none" xmlns="http://www.w3.org/2000/svg">
<path d="M8.68388 0.298093C8.67595 0.306025 8.6651 0.310476 8.65388 0.310499C3.88024 0.320038 0 4.20614 0 8.98198C0 13.7637 3.88979 17.6535 8.6715 17.6535C9.97344 17.6535 11.2557 17.3783 12.3783 16.8455C12.6175 16.732 12.9027 16.7905 13.1063 16.9598L15.5839 19.4373C15.8127 19.6947 16.0917 19.9027 16.4037 20.0484C16.7157 20.1941 17.0543 20.2745 17.3985 20.2846C17.7428 20.2947 18.0854 20.2344 18.4055 20.1073C18.7256 19.9802 19.0163 19.789 19.2598 19.5455C19.5033 19.302 19.6945 19.0113 19.8216 18.6912C19.9487 18.3711 20.009 18.0285 19.9989 17.6842C19.9888 17.34 19.9084 17.0015 19.7627 16.6894C19.617 16.3774 19.409 16.0984 19.1516 15.8696L16.674 13.3921C16.47 13.1879 16.387 12.8753 16.512 12.6152C17.0434 11.5089 17.3678 10.2617 17.3678 8.9572C17.3678 4.18136 13.4875 0.295262 8.71389 0.285723C8.70267 0.285701 8.69181 0.290162 8.68388 0.298093ZM8.65911 2.80044C8.66704 2.79251 8.6779 2.78804 8.68912 2.78808C12.1247 2.79744 14.8654 5.54403 14.8654 8.98198C14.8654 10.6172 14.2708 12.1285 13.2302 13.2434C13.2054 13.2682 13.1807 13.2929 13.1559 13.3177C13.0389 13.415 12.9311 13.5228 12.8338 13.6398C11.7437 14.6308 10.2571 15.2007 8.64672 15.2007C5.2029 15.2007 2.45279 12.4506 2.45279 9.00675C2.45279 5.56881 5.19352 2.82221 8.6291 2.81285C8.64032 2.81282 8.65118 2.80837 8.65911 2.80044Z" fill="black"/>
</svg>
