<svg width="75" height="75" viewBox="0 0 75 75" fill="none" xmlns="http://www.w3.org/2000/svg">
<circle cx="37.5" cy="37.5" r="36.5" fill="#4B626C" stroke="white" stroke-width="2"/>
<path d="M47.4938 43.2399L52.5111 23.5946H58V20.5067H50.1127L48.9299 25.1377L17 25.1149L20.3946 43.2398H47.4938V43.2399ZM48.1415 28.2251L45.0954 40.1519H22.9579L20.7205 28.2055L48.1415 28.2251Z" fill="white"/>
<path d="M43.2669 54.4934C45.9898 54.4934 48.205 52.2781 48.205 49.5552C48.205 46.8323 45.9898 44.6171 43.2669 44.6171H24.6618C21.9389 44.6171 19.7236 46.8323 19.7236 49.5552C19.7236 52.2781 21.9389 54.4934 24.6618 54.4934C27.3848 54.4934 29.6 52.2781 29.6 49.5552C29.6 48.9013 29.4719 48.2768 29.24 47.705H38.6887C38.4568 48.2768 38.3287 48.9013 38.3287 49.5552C38.3287 52.2781 40.544 54.4934 43.2669 54.4934ZM26.512 49.5552C26.512 50.5754 25.682 51.4054 24.6618 51.4054C23.6416 51.4054 22.8116 50.5754 22.8116 49.5552C22.8116 48.535 23.6416 47.705 24.6618 47.705C25.682 47.705 26.512 48.535 26.512 49.5552ZM45.1171 49.5552C45.1171 50.5754 44.2871 51.4054 43.2669 51.4054C42.2467 51.4054 41.4167 50.5754 41.4167 49.5552C41.4167 48.535 42.2467 47.705 43.2669 47.705C44.2871 47.705 45.1171 48.535 45.1171 49.5552Z" fill="white"/>
</svg>
